<svg width="21" height="27" viewBox="0 0 21 27" fill="none" xmlns="http://www.w3.org/2000/svg">
<path d="M9.63867 11.215C8.90039 11.215 8.27832 11.4679 7.77246 11.9738C7.2666 12.4796 7.01367 13.1017 7.01367 13.84C7.01367 14.5783 7.2666 15.2003 7.77246 15.7062C8.27832 16.2121 8.90039 16.465 9.63867 16.465C10.377 16.465 10.999 16.2121 11.5049 15.7062C12.0107 15.2003 12.2637 14.5783 12.2637 13.84C12.2637 13.1017 12.0107 12.4796 11.5049 11.9738C10.999 11.4679 10.377 11.215 9.63867 11.215ZM9.63867 18.2287C8.8457 18.2287 8.11426 18.0304 7.44434 17.6339C6.77441 17.2375 6.24121 16.7043 5.84473 16.0343C5.44824 15.3644 5.25 14.633 5.25 13.84C5.25 13.047 5.44824 12.3156 5.84473 11.6457C6.24121 10.9757 6.77441 10.4425 7.44434 10.0461C8.11426 9.64957 8.8457 9.45132 9.63867 9.45132C10.4316 9.45132 11.1631 9.64957 11.833 10.0461C12.5029 10.4425 13.0361 10.9757 13.4326 11.6457C13.8291 12.3156 14.0273 13.047 14.0273 13.84C14.0273 14.633 13.8291 15.3644 13.4326 16.0343C13.0361 16.7043 12.5029 17.2375 11.833 17.6339C11.1631 18.0304 10.4316 18.2287 9.63867 18.2287ZM9.63867 7.2775C7.47852 7.2775 5.52344 7.88589 3.77344 9.10269C2.02344 10.3195 0.765625 11.8986 0 13.84C0.765625 15.7814 2.02344 17.3605 3.77344 18.5773C5.52344 19.7941 7.47852 20.4025 9.63867 20.4025C11.7988 20.4025 13.7539 19.7941 15.5039 18.5773C17.2539 17.3605 18.5117 15.7814 19.2773 13.84C18.5117 11.8986 17.2539 10.3195 15.5039 9.10269C13.7539 7.88589 11.7988 7.2775 9.63867 7.2775Z" fill="#AEAEAE"/>
</svg>
