<svg width="163" height="48" viewBox="0 0 163 48" fill="none" xmlns="http://www.w3.org/2000/svg">
<g clip-path="url(#clip0_1_332)">
<path fill-rule="evenodd" clip-rule="evenodd" d="M1.56592 26.8391V0.734375H10.8628V10.4781H16.0874V18.6086H10.8628V25.525C10.8628 27.5451 11.6648 28.4035 13.6258 28.4035H15.3339V36.534H11.0141C4.73205 36.534 1.56592 33.3022 1.56592 26.8391ZM17.7446 23.2045C17.7446 19.6163 18.9521 16.5379 21.312 14.0133C23.6744 11.4388 26.6898 10.1753 30.2578 10.1753C33.9251 10.1753 36.236 11.1854 37.2396 13.1544V10.4781H46.3354V36.2648C45.9898 36.2739 45.7223 36.2788 45.5317 36.2788C43.7728 36.2788 42.4176 36.0272 41.3614 35.4734C40.392 34.9931 39.5996 34.2147 39.0989 33.251C37.5924 35.3199 34.9807 36.33 31.2608 36.33C27.2418 36.33 23.977 35.0689 21.4628 32.5437C19.0018 30.0191 17.7446 26.889 17.7446 23.2045ZM26.941 23.2045C26.941 25.9789 29.3518 28.1519 32.2165 28.1519C35.0806 28.1519 37.4913 25.8795 37.4913 23.2045C37.4913 20.5776 35.0806 18.3552 32.2165 18.3552C29.3518 18.3552 26.941 20.5776 26.941 23.2045ZM53.2022 47.0344V39.309H62.5989C64.5581 39.309 66.1155 38.955 67.2703 38.249C68.7786 37.3912 69.5322 35.7737 69.5322 33.4021V33.3022C68.476 35.1194 66.0156 36.0272 62.1473 36.0272C58.5787 36.0272 55.5639 34.7661 53.2016 32.2921C50.8398 29.8163 49.6353 26.7873 49.6353 23.2045C49.6353 19.6163 50.8398 16.5379 53.2022 14.0133C55.5639 11.4388 58.5787 10.1753 62.1473 10.1753C65.8134 10.1753 68.1758 11.1854 69.1291 13.1544V10.4781H78.2237V31.6847C78.2237 37.2907 77.0689 41.2798 73.6528 43.9554C71.1397 46.0243 67.9742 47.0344 64.1562 47.0344H53.2022ZM58.7778 23.2045C58.7778 25.8789 61.0899 27.999 64.0545 27.999C66.9192 27.999 69.33 25.8789 69.33 23.2045C69.33 20.5776 66.9192 18.3552 64.0545 18.3552C61.1904 18.3552 58.7778 20.5776 58.7778 23.2045ZM85.1104 47.0344V39.309H94.5047C96.4627 39.309 98.0231 38.955 99.1773 38.249C100.684 37.3912 101.437 35.7737 101.437 33.4021V33.3022C100.382 35.1194 97.9214 36.0272 94.0502 36.0272C90.4852 36.0272 87.4685 34.7661 85.1104 32.2921C82.7463 29.8163 81.5406 26.7873 81.5406 23.2045C81.5406 19.6163 82.7463 16.5379 85.1104 14.0133C87.4685 11.4388 90.4852 10.1753 94.0502 10.1753C97.7217 10.1753 100.083 11.1854 101.037 13.1544V10.4781H110.133V31.6847C110.133 37.2907 108.976 41.2798 105.559 43.9554C103.044 46.0243 99.8801 47.0344 96.0621 47.0344H85.1104ZM90.6849 23.2045C90.6849 25.8789 92.9958 27.999 95.961 27.999C98.8275 27.999 101.236 25.8789 101.236 23.2045C101.236 20.5776 98.8275 18.3552 95.961 18.3552C93.0975 18.3552 90.6849 20.5776 90.6849 23.2045ZM116.965 14.0133C119.327 11.4388 122.339 10.1753 125.909 10.1753C129.577 10.1753 131.887 11.1854 132.891 13.1544V0.734375H141.987V36.2788H141.183C139.426 36.2788 138.069 36.0272 137.014 35.4734C136.043 34.9942 135.25 34.2156 134.75 33.251C133.244 35.3199 130.632 36.33 126.914 36.33C122.893 36.33 119.629 35.0689 117.115 32.5437C114.652 30.0191 113.396 26.889 113.396 23.2045C113.396 19.6163 114.604 16.5379 116.965 14.0133ZM122.591 23.2045C122.591 25.9789 125.003 28.1519 127.866 28.1519C130.734 28.1519 133.142 25.8795 133.142 23.2045C133.142 20.5776 130.733 18.3552 127.866 18.3552C125.003 18.3552 122.591 20.5776 122.591 23.2045Z" fill="#2D2D2D"/>
<path fill-rule="evenodd" clip-rule="evenodd" d="M149.855 22.6042C149.855 26.0584 152.76 28.7584 156.21 28.7584C159.66 28.7584 162.566 25.9329 162.566 22.6042C162.566 19.3388 159.66 16.5742 156.21 16.5742C152.76 16.5742 149.855 19.3388 149.855 22.6042Z" fill="#F04616"/>
</g>
<defs>
<clipPath id="clip0_1_332">
<rect width="162" height="48" fill="white" transform="translate(0.97998)"/>
</clipPath>
</defs>
</svg>
