<svg width="162" height="48" viewBox="0 0 162 48" fill="none" xmlns="http://www.w3.org/2000/svg">
<g clip-path="url(#clip0_4_470)">
<path fill-rule="evenodd" clip-rule="evenodd" d="M0.585938 26.8391V0.734375H9.88278V10.4781H15.1074V18.6086H9.88278V25.525C9.88278 27.5451 10.6848 28.4035 12.6458 28.4035H14.3539V36.534H10.0341C3.75207 36.534 0.585938 33.3022 0.585938 26.8391ZM16.7646 23.2045C16.7646 19.6163 17.9721 16.5379 20.332 14.0133C22.6944 11.4388 25.7098 10.1753 29.2778 10.1753C32.9451 10.1753 35.256 11.1854 36.2596 13.1544V10.4781H45.3554V36.2648C45.0098 36.2739 44.7423 36.2788 44.5517 36.2788C42.7928 36.2788 41.4376 36.0272 40.3814 35.4734C39.412 34.9931 38.6196 34.2147 38.1189 33.251C36.6124 35.3199 34.0007 36.33 30.2808 36.33C26.2618 36.33 22.997 35.0689 20.4828 32.5437C18.0218 30.0191 16.7646 26.889 16.7646 23.2045ZM25.961 23.2045C25.961 25.9789 28.3718 28.1519 31.2365 28.1519C34.1006 28.1519 36.5113 25.8795 36.5113 23.2045C36.5113 20.5776 34.1006 18.3552 31.2365 18.3552C28.3718 18.3552 25.961 20.5776 25.961 23.2045ZM52.2222 47.0344V39.309H61.6189C63.5781 39.309 65.1355 38.955 66.2903 38.249C67.7986 37.3912 68.5522 35.7737 68.5522 33.4021V33.3022C67.496 35.1194 65.0356 36.0272 61.1673 36.0272C57.5987 36.0272 54.5839 34.7661 52.2216 32.2921C49.8598 29.8163 48.6553 26.7873 48.6553 23.2045C48.6553 19.6163 49.8598 16.5379 52.2222 14.0133C54.5839 11.4388 57.5987 10.1753 61.1673 10.1753C64.8334 10.1753 67.1958 11.1854 68.1491 13.1544V10.4781H77.2437V31.6847C77.2437 37.2907 76.0889 41.2798 72.6728 43.9554C70.1597 46.0243 66.9942 47.0344 63.1762 47.0344H52.2222ZM57.7978 23.2045C57.7978 25.8789 60.1099 27.999 63.0745 27.999C65.9392 27.999 68.35 25.8789 68.35 23.2045C68.35 20.5776 65.9392 18.3552 63.0745 18.3552C60.2104 18.3552 57.7978 20.5776 57.7978 23.2045ZM84.1304 47.0344V39.309H93.5247C95.4827 39.309 97.0431 38.955 98.1973 38.249C99.7045 37.3912 100.457 35.7737 100.457 33.4021V33.3022C99.4018 35.1194 96.9414 36.0272 93.0702 36.0272C89.5052 36.0272 86.4885 34.7661 84.1304 32.2921C81.7663 29.8163 80.5606 26.7873 80.5606 23.2045C80.5606 19.6163 81.7663 16.5379 84.1304 14.0133C86.4885 11.4388 89.5052 10.1753 93.0702 10.1753C96.7417 10.1753 99.1028 11.1854 100.057 13.1544V10.4781H109.153V31.6847C109.153 37.2907 107.996 41.2798 104.579 43.9554C102.064 46.0243 98.9001 47.0344 95.0821 47.0344H84.1304ZM89.7049 23.2045C89.7049 25.8789 92.0158 27.999 94.981 27.999C97.8475 27.999 100.256 25.8789 100.256 23.2045C100.256 20.5776 97.8475 18.3552 94.981 18.3552C92.1175 18.3552 89.7049 20.5776 89.7049 23.2045ZM115.985 14.0133C118.347 11.4388 121.359 10.1753 124.929 10.1753C128.597 10.1753 130.907 11.1854 131.911 13.1544V0.734375H141.007V36.2788H140.203C138.446 36.2788 137.089 36.0272 136.034 35.4734C135.063 34.9942 134.27 34.2156 133.77 33.251C132.264 35.3199 129.652 36.33 125.934 36.33C121.913 36.33 118.649 35.0689 116.135 32.5437C113.672 30.0191 112.416 26.889 112.416 23.2045C112.416 19.6163 113.624 16.5379 115.985 14.0133ZM121.611 23.2045C121.611 25.9789 124.023 28.1519 126.886 28.1519C129.754 28.1519 132.162 25.8795 132.162 23.2045C132.162 20.5776 129.753 18.3552 126.886 18.3552C124.023 18.3552 121.611 20.5776 121.611 23.2045Z" fill="#2D2D2D"/>
<path fill-rule="evenodd" clip-rule="evenodd" d="M148.875 22.6042C148.875 26.0584 151.78 28.7584 155.23 28.7584C158.68 28.7584 161.586 25.9329 161.586 22.6042C161.586 19.3388 158.68 16.5742 155.23 16.5742C151.78 16.5742 148.875 19.3388 148.875 22.6042Z" fill="#F04616"/>
</g>
<defs>
<clipPath id="clip0_4_470">
<rect width="162" height="48" fill="white"/>
</clipPath>
</defs>
</svg>
